<?xml version="1.0" encoding="UTF-8"?>
<svg id="Layer_1" xmlns="http://www.w3.org/2000/svg" version="1.1" xmlns:xlink="http://www.w3.org/1999/xlink" viewBox="0 0 1497.1 1028.4">
  <!-- Generator: Adobe Illustrator 29.3.1, SVG Export Plug-In . SVG Version: 2.1.0 Build 151)  -->
  <defs>
    <style>
      .st0 {
        stroke: #9747ff;
        stroke-dasharray: 10 5;
      }

      .st0, .st1 {
        fill: none;
      }

      .st2 {
        clip-path: url(#clippath-4);
      }

      .st3 {
        mask: url(#mask-1);
      }

      .st4 {
        fill: #ca8233;
      }

      .st5 {
        fill: #fff;
      }

      .st6 {
        mask: url(#mask);
      }

      .st7 {
        fill: #9747ff;
      }

      .st8 {
        fill: #f3f4f6;
      }

      .st9 {
        mask: url(#mask-2);
      }

      .st10 {
        clip-path: url(#clippath-1);
      }

      .st11 {
        fill: #f9fafb;
      }

      .st12 {
        clip-path: url(#clippath-5);
      }

      .st13 {
        clip-path: url(#clippath-3);
      }

      .st14 {
        fill: #d99f5f;
      }

      .st15 {
        clip-path: url(#clippath-2);
      }

      .st16 {
        mask: url(#mask-4);
      }

      .st17 {
        clip-path: url(#clippath);
      }

      .st18 {
        fill: #e5e7eb;
      }

      .st19 {
        mask: url(#mask-3);
      }
    </style>
    <mask id="mask" x="343.4" y="319.6" width="173.5" height="136.2" maskUnits="userSpaceOnUse">
      <g id="path-2-inside-1_4602_37617">
        <path class="st5" d="M343.4,319.6h171.7v134.3h-171.7v-134.3Z"/>
      </g>
    </mask>
    <mask id="mask-1" x="515" y="319.6" width="173.5" height="136.2" maskUnits="userSpaceOnUse">
      <g id="path-4-inside-2_4602_37617">
        <path class="st5" d="M515,319.6h171.7v134.3h-171.7v-134.3Z"/>
      </g>
    </mask>
    <mask id="mask-2" x="686.7" y="319.6" width="182.9" height="136.2" maskUnits="userSpaceOnUse">
      <g id="path-6-inside-3_4602_37617">
        <path class="st5" d="M686.7,319.6h182.9v134.3h-182.9v-134.3Z"/>
      </g>
    </mask>
    <mask id="mask-3" x="343.4" y="453.9" width="173.5" height="134.3" maskUnits="userSpaceOnUse">
      <g id="path-8-inside-4_4602_37617">
        <path class="st5" d="M343.4,453.9h171.7v134.3h-171.7v-134.3Z"/>
      </g>
    </mask>
    <mask id="mask-4" x="515" y="453.9" width="173.5" height="134.3" maskUnits="userSpaceOnUse">
      <g id="path-10-inside-5_4602_37617">
        <path class="st5" d="M515,453.9h171.7v134.3h-171.7v-134.3Z"/>
      </g>
    </mask>
    <clipPath id="clippath">
      <path class="st1" d="M410.5,364.4h37.3c12.4,0,22.4,10,22.4,22.4s-10,22.4-22.4,22.4h-37.3c-12.4,0-22.4-10-22.4-22.4s10-22.4,22.4-22.4Z"/>
    </clipPath>
    <clipPath id="clippath-1">
      <path class="st1" d="M582.2,364.4h37.3c12.4,0,22.4,10,22.4,22.4s-10,22.4-22.4,22.4h-37.3c-12.4,0-22.4-10-22.4-22.4s10-22.4,22.4-22.4Z"/>
    </clipPath>
    <clipPath id="clippath-2">
      <path class="st1" d="M759.5,364.4h37.3c12.4,0,22.4,10,22.4,22.4s-10,22.4-22.4,22.4h-37.3c-12.4,0-22.4-10-22.4-22.4s10-22.4,22.4-22.4Z"/>
    </clipPath>
    <clipPath id="clippath-3">
      <path class="st1" d="M410.5,498.7h37.3c12.4,0,22.4,10,22.4,22.4s-10,22.4-22.4,22.4h-37.3c-12.4,0-22.4-10-22.4-22.4s10-22.4,22.4-22.4Z"/>
    </clipPath>
    <clipPath id="clippath-4">
      <path class="st1" d="M582.2,498.7h37.3c12.4,0,22.4,10,22.4,22.4s-10,22.4-22.4,22.4h-37.3c-12.4,0-22.4-10-22.4-22.4s10-22.4,22.4-22.4Z"/>
    </clipPath>
    <clipPath id="clippath-5">
      <path class="st1" d="M759.5,498.7h37.3c12.4,0,22.4,10,22.4,22.4s-10,22.4-22.4,22.4h-37.3c-12.4,0-22.4-10-22.4-22.4s10-22.4,22.4-22.4Z"/>
    </clipPath>
  </defs>
  <rect class="st1" width="402" height="178"/>
  <g>
    <rect class="st0" x="344.3" y="320.5" width="524.3" height="266.8" rx="4.5" ry="4.5"/>
    <g class="st6">
      <path class="st7" d="M515,453.9v.9h.9v-.9h-.9ZM343.4,454.9h9.5v-1.9h-9.5v1.9ZM362.4,454.9h19.1v-1.9h-19.1v1.9ZM391,454.9h19.1v-1.9h-19.1v1.9ZM419.7,454.9h19.1v-1.9h-19.1v1.9ZM448.3,454.9h19.1v-1.9h-19.1v1.9ZM476.9,454.9h19.1v-1.9h-19.1v1.9ZM505.5,454.9h9.5v-1.9h-9.5v1.9ZM516,453.9v-9h-1.9v9h1.9ZM516,436v-17.9h-1.9v17.9h1.9ZM516,409.2v-17.9h-1.9v17.9h1.9ZM516,382.3v-17.9h-1.9v17.9h1.9ZM516,355.4v-17.9h-1.9v17.9h1.9ZM516,328.6v-9h-1.9v9h1.9ZM515,453.9v1.9h1.9v-1.9h-1.9ZM343.4,455.8h9.5v-3.7h-9.5v3.7ZM362.4,455.8h19.1v-3.7h-19.1v3.7ZM391,455.8h19.1v-3.7h-19.1v3.7ZM419.7,455.8h19.1v-3.7h-19.1v3.7ZM448.3,455.8h19.1v-3.7h-19.1v3.7ZM476.9,455.8h19.1v-3.7h-19.1v3.7ZM505.5,455.8h9.5v-3.7h-9.5v3.7ZM516.9,453.9v-9h-3.7v9h3.7ZM516.9,436v-17.9h-3.7v17.9h3.7ZM516.9,409.2v-17.9h-3.7v17.9h3.7ZM516.9,382.3v-17.9h-3.7v17.9h3.7ZM516.9,355.4v-17.9h-3.7v17.9h3.7ZM516.9,328.6v-9h-3.7v9h3.7Z"/>
    </g>
    <g class="st3">
      <path class="st7" d="M686.7,453.9v.9h.9v-.9h-.9ZM515,454.9h9.5v-1.9h-9.5v1.9ZM534.1,454.9h19.1v-1.9h-19.1v1.9ZM562.7,454.9h19.1v-1.9h-19.1v1.9ZM591.3,454.9h19.1v-1.9h-19.1v1.9ZM619.9,454.9h19.1v-1.9h-19.1v1.9ZM648.5,454.9h19.1v-1.9h-19.1v1.9ZM677.2,454.9h9.5v-1.9h-9.5v1.9ZM687.6,453.9v-9h-1.9v9h1.9ZM687.6,436v-17.9h-1.9v17.9h1.9ZM687.6,409.2v-17.9h-1.9v17.9h1.9ZM687.6,382.3v-17.9h-1.9v17.9h1.9ZM687.6,355.4v-17.9h-1.9v17.9h1.9ZM687.6,328.6v-9h-1.9v9h1.9ZM686.7,453.9v1.9h1.9v-1.9h-1.9ZM515,455.8h9.5v-3.7h-9.5v3.7ZM534.1,455.8h19.1v-3.7h-19.1v3.7ZM562.7,455.8h19.1v-3.7h-19.1v3.7ZM591.3,455.8h19.1v-3.7h-19.1v3.7ZM619.9,455.8h19.1v-3.7h-19.1v3.7ZM648.5,455.8h19.1v-3.7h-19.1v3.7ZM677.2,455.8h9.5v-3.7h-9.5v3.7ZM688.6,453.9v-9h-3.7v9h3.7ZM688.6,436v-17.9h-3.7v17.9h3.7ZM688.6,409.2v-17.9h-3.7v17.9h3.7ZM688.6,382.3v-17.9h-3.7v17.9h3.7ZM688.6,355.4v-17.9h-3.7v17.9h3.7ZM688.6,328.6v-9h-3.7v9h3.7Z"/>
    </g>
    <g class="st9">
      <path class="st7" d="M686.7,454.9h8.7v-1.9h-8.7v1.9ZM704.1,454.9h17.4v-1.9h-17.4v1.9ZM730.2,454.9h17.4v-1.9h-17.4v1.9ZM756.4,454.9h17.4v-1.9h-17.4v1.9ZM782.5,454.9h17.4v-1.9h-17.4v1.9ZM808.6,454.9h17.4v-1.9h-17.4v1.9ZM834.7,454.9h17.4v-1.9h-17.4v1.9ZM860.9,454.9h8.7v-1.9h-8.7v1.9ZM686.7,455.8h8.7v-3.7h-8.7v3.7ZM704.1,455.8h17.4v-3.7h-17.4v3.7ZM730.2,455.8h17.4v-3.7h-17.4v3.7ZM756.4,455.8h17.4v-3.7h-17.4v3.7ZM782.5,455.8h17.4v-3.7h-17.4v3.7ZM808.6,455.8h17.4v-3.7h-17.4v3.7ZM834.7,455.8h17.4v-3.7h-17.4v3.7ZM860.9,455.8h8.7v-3.7h-8.7v3.7Z"/>
    </g>
    <g class="st19">
      <path class="st7" d="M516,588.3v-9h-1.9v9h1.9ZM516,570.4v-17.9h-1.9v17.9h1.9ZM516,543.5v-17.9h-1.9v17.9h1.9ZM516,516.6v-17.9h-1.9v17.9h1.9ZM516,489.8v-17.9h-1.9v17.9h1.9ZM516,462.9v-9h-1.9v9h1.9ZM516.9,588.3v-9h-3.7v9h3.7ZM516.9,570.4v-17.9h-3.7v17.9h3.7ZM516.9,543.5v-17.9h-3.7v17.9h3.7ZM516.9,516.6v-17.9h-3.7v17.9h3.7ZM516.9,489.8v-17.9h-3.7v17.9h3.7ZM516.9,462.9v-9h-3.7v9h3.7Z"/>
    </g>
    <g class="st16">
      <path class="st7" d="M687.6,588.3v-9h-1.9v9h1.9ZM687.6,570.4v-17.9h-1.9v17.9h1.9ZM687.6,543.5v-17.9h-1.9v17.9h1.9ZM687.6,516.6v-17.9h-1.9v17.9h1.9ZM687.6,489.8v-17.9h-1.9v17.9h1.9ZM687.6,462.9v-9h-1.9v9h1.9ZM688.6,588.3v-9h-3.7v9h3.7ZM688.6,570.4v-17.9h-3.7v17.9h3.7ZM688.6,543.5v-17.9h-3.7v17.9h3.7ZM688.6,516.6v-17.9h-3.7v17.9h3.7ZM688.6,489.8v-17.9h-3.7v17.9h3.7ZM688.6,462.9v-9h-3.7v9h3.7Z"/>
    </g>
    <path class="st7" d="M177.2,395.2v-16.3h5.8c1.3,0,2.3.2,3.1.7.8.5,1.5,1.1,1.9,1.9.4.8.6,1.7.6,2.7s-.2,1.9-.6,2.7c-.4.8-1,1.4-1.9,1.9-.8.5-1.9.7-3.1.7h-4v-2.1h3.8c.8,0,1.4-.1,1.9-.4.5-.3.9-.7,1.1-1.1.2-.5.3-1,.3-1.6s-.1-1.2-.3-1.6-.6-.9-1.1-1.1c-.5-.3-1.2-.4-2-.4h-3.1v14.2h-2.5ZM191.3,395.2v-12.2h2.3v1.9h.1c.2-.7.6-1.2,1.2-1.6.6-.4,1.2-.6,1.9-.6s.3,0,.5,0c.2,0,.4,0,.5,0v2.3c0,0-.3,0-.5,0-.2,0-.5,0-.7,0-.6,0-1.1.1-1.5.4-.4.2-.8.6-1,1-.3.4-.4.9-.4,1.4v7.5h-2.4ZM204.8,395.4c-1.2,0-2.2-.3-3.1-.8-.9-.5-1.5-1.2-2-2.2-.5-.9-.7-2-.7-3.3s.2-2.4.7-3.3c.5-1,1.1-1.7,2-2.2.8-.5,1.8-.8,3-.8s1.4.1,2,.3c.6.2,1.2.6,1.7,1.1.5.5.9,1.1,1.2,1.9.3.8.4,1.7.4,2.8v.8h-9.7v-1.8h7.4c0-.6-.1-1.2-.4-1.7-.3-.5-.6-.9-1.1-1.2-.5-.3-1-.4-1.6-.4s-1.3.2-1.7.5c-.5.3-.9.7-1.1,1.3-.3.5-.4,1.1-.4,1.7v1.4c0,.8.1,1.5.4,2.1.3.6.7,1,1.2,1.3.5.3,1.1.4,1.8.4s.9,0,1.2-.2c.4-.1.7-.3,1-.6.3-.3.5-.6.6-1l2.3.4c-.2.7-.5,1.2-1,1.7-.5.5-1,.9-1.7,1.2-.7.3-1.5.4-2.4.4ZM221.8,385.9l-2.2.4c0-.3-.2-.5-.4-.8-.2-.2-.5-.5-.8-.6-.3-.2-.7-.2-1.2-.2s-1.2.2-1.7.5c-.5.3-.7.7-.7,1.2s.2.7.5,1c.3.2.8.5,1.5.6l1.9.4c1.1.3,2,.7,2.5,1.2.6.5.8,1.2.8,2.1s-.2,1.4-.6,2c-.4.6-1,1-1.8,1.3-.7.3-1.6.5-2.6.5s-2.5-.3-3.3-.9c-.9-.6-1.4-1.4-1.6-2.5l2.3-.3c.1.6.4,1.1.9,1.4.4.3,1,.5,1.7.5s1.4-.2,1.9-.5c.5-.3.7-.7.7-1.2s-.1-.7-.4-1c-.3-.3-.7-.5-1.3-.6l-2.1-.5c-1.1-.3-2-.7-2.5-1.2-.5-.6-.8-1.3-.8-2.2s.2-1.4.6-1.9c.4-.5,1-1,1.7-1.3.7-.3,1.5-.5,2.4-.5,1.3,0,2.4.3,3.1.9.8.6,1.3,1.3,1.5,2.3ZM233.8,385.9l-2.2.4c0-.3-.2-.5-.4-.8-.2-.2-.5-.5-.8-.6-.3-.2-.7-.2-1.2-.2s-1.2.2-1.7.5c-.5.3-.7.7-.7,1.2s.2.7.5,1c.3.2.8.5,1.5.6l1.9.4c1.1.3,2,.7,2.5,1.2.6.5.8,1.2.8,2.1s-.2,1.4-.6,2c-.4.6-1,1-1.8,1.3-.7.3-1.6.5-2.6.5s-2.5-.3-3.3-.9c-.9-.6-1.4-1.4-1.6-2.5l2.3-.3c.1.6.4,1.1.9,1.4.4.3,1,.5,1.7.5s1.4-.2,1.9-.5c.5-.3.7-.7.7-1.2s-.1-.7-.4-1c-.3-.3-.7-.5-1.3-.6l-2.1-.5c-1.1-.3-2-.7-2.5-1.2-.5-.6-.8-1.3-.8-2.2s.2-1.4.6-1.9c.4-.5,1-1,1.7-1.3.7-.3,1.5-.5,2.4-.5,1.3,0,2.4.3,3.1.9.8.6,1.3,1.3,1.5,2.3ZM241.9,395.4c-1.2,0-2.2-.3-3.1-.8-.9-.5-1.5-1.2-2-2.2-.5-.9-.7-2-.7-3.3s.2-2.4.7-3.3c.5-1,1.1-1.7,2-2.2.8-.5,1.8-.8,3-.8s1.4.1,2,.3c.6.2,1.2.6,1.7,1.1.5.5.9,1.1,1.2,1.9.3.8.4,1.7.4,2.8v.8h-9.7v-1.8h7.4c0-.6-.1-1.2-.4-1.7-.3-.5-.6-.9-1.1-1.2-.5-.3-1-.4-1.6-.4s-1.3.2-1.7.5c-.5.3-.9.7-1.1,1.3-.3.5-.4,1.1-.4,1.7v1.4c0,.8.1,1.5.4,2.1.3.6.7,1,1.2,1.3.5.3,1.1.4,1.8.4s.9,0,1.2-.2c.4-.1.7-.3,1-.6.3-.3.5-.6.6-1l2.3.4c-.2.7-.5,1.2-1,1.7-.5.5-1,.9-1.7,1.2-.7.3-1.5.4-2.4.4ZM254.4,395.4c-1,0-1.9-.3-2.6-.8-.8-.5-1.4-1.2-1.8-2.2-.4-.9-.7-2.1-.7-3.4s.2-2.4.7-3.4c.4-.9,1.1-1.7,1.8-2.2.8-.5,1.7-.7,2.6-.7s1.4.1,1.8.4c.5.2.8.5,1.1.9.3.3.5.6.6.9h.1v-6.1h2.4v16.3h-2.3v-1.9h-.2c-.1.3-.3.6-.6.9-.3.3-.6.6-1.1.9-.5.2-1.1.4-1.8.4ZM254.9,393.4c.7,0,1.3-.2,1.7-.5.5-.4.8-.9,1.1-1.5.2-.6.4-1.4.4-2.3s-.1-1.6-.4-2.2c-.2-.6-.6-1.1-1.1-1.5-.5-.4-1.1-.5-1.7-.5s-1.3.2-1.8.6c-.5.4-.8.9-1.1,1.5-.2.6-.4,1.4-.4,2.2s.1,1.6.4,2.2c.2.7.6,1.2,1.1,1.6.5.4,1.1.6,1.8.6ZM265.4,395.3c-.4,0-.8-.2-1.1-.5-.3-.3-.5-.7-.5-1.1s.2-.8.5-1.1c.3-.3.7-.5,1.1-.5s.8.2,1.1.5c.3.3.5.7.5,1.1s0,.6-.2.8c-.1.2-.3.4-.6.6-.2.1-.5.2-.8.2ZM265.4,386.4c-.4,0-.8-.2-1.1-.5-.3-.3-.5-.7-.5-1.1s.2-.8.5-1.1c.3-.3.7-.5,1.1-.5s.8.2,1.1.5c.3.3.5.7.5,1.1s0,.6-.2.8c-.1.2-.3.4-.6.6-.2.1-.5.2-.8.2ZM275.5,381v-2.1h12.6v2.1h-5.1v14.2h-2.4v-14.2h-5.1ZM289.4,395.2v-12.2h2.3v1.9h.1c.2-.7.6-1.2,1.2-1.6.6-.4,1.2-.6,1.9-.6s.3,0,.5,0c.2,0,.4,0,.5,0v2.3c0,0-.3,0-.5,0-.2,0-.5,0-.7,0-.6,0-1.1.1-1.5.4-.4.2-.8.6-1,1-.3.4-.4.9-.4,1.4v7.5h-2.4ZM305.7,390.1v-7.1h2.4v12.2h-2.3v-2.1h-.1c-.3.7-.7,1.2-1.4,1.6-.6.4-1.4.6-2.3.6s-1.5-.2-2.1-.5c-.6-.3-1.1-.9-1.4-1.6-.3-.7-.5-1.5-.5-2.5v-7.8h2.4v7.5c0,.8.2,1.5.7,2,.5.5,1.1.7,1.8.7s.9-.1,1.3-.3c.4-.2.8-.6,1.1-1,.3-.5.4-1,.4-1.7ZM316.6,395.4c-1.2,0-2.2-.3-3.1-.8-.9-.5-1.5-1.2-2-2.2-.5-.9-.7-2-.7-3.3s.2-2.4.7-3.3c.5-1,1.1-1.7,2-2.2.8-.5,1.8-.8,3-.8s1.4.1,2,.3c.6.2,1.2.6,1.7,1.1.5.5.9,1.1,1.2,1.9.3.8.4,1.7.4,2.8v.8h-9.7v-1.8h7.4c0-.6-.1-1.2-.4-1.7-.3-.5-.6-.9-1.1-1.2-.5-.3-1-.4-1.6-.4s-1.3.2-1.7.5c-.5.3-.9.7-1.1,1.3-.3.5-.4,1.1-.4,1.7v1.4c0,.8.1,1.5.4,2.1.3.6.7,1,1.2,1.3.5.3,1.1.4,1.8.4s.9,0,1.2-.2c.4-.1.7-.3,1-.6.3-.3.5-.6.6-1l2.3.4c-.2.7-.5,1.2-1,1.7-.5.5-1,.9-1.7,1.2-.7.3-1.5.4-2.4.4Z"/>
    <path class="st7" d="M169.7,529.5v-16.3h5.8c1.3,0,2.3.2,3.1.7.8.5,1.5,1.1,1.9,1.9.4.8.6,1.7.6,2.7s-.2,1.9-.6,2.7c-.4.8-1,1.4-1.9,1.9-.8.5-1.9.7-3.1.7h-4v-2.1h3.8c.8,0,1.4-.1,1.9-.4.5-.3.9-.7,1.1-1.1.2-.5.3-1,.3-1.6s-.1-1.2-.3-1.6-.6-.9-1.1-1.1c-.5-.3-1.2-.4-2-.4h-3.1v14.2h-2.5ZM183.9,529.5v-12.2h2.3v1.9h.1c.2-.7.6-1.2,1.2-1.6.6-.4,1.2-.6,1.9-.6s.3,0,.5,0c.2,0,.4,0,.5,0v2.3c0,0-.3,0-.5,0-.2,0-.5,0-.7,0-.6,0-1.1.1-1.5.4-.4.2-.8.6-1,1-.3.4-.4.9-.4,1.4v7.5h-2.4ZM197.3,529.8c-1.2,0-2.2-.3-3.1-.8-.9-.5-1.5-1.2-2-2.2-.5-.9-.7-2-.7-3.3s.2-2.4.7-3.3c.5-1,1.1-1.7,2-2.2.8-.5,1.8-.8,3-.8s1.4.1,2,.3c.6.2,1.2.6,1.7,1.1.5.5.9,1.1,1.2,1.9.3.8.4,1.7.4,2.8v.8h-9.7v-1.8h7.4c0-.6-.1-1.2-.4-1.7-.3-.5-.6-.9-1.1-1.2-.5-.3-1-.4-1.6-.4s-1.3.2-1.7.5c-.5.3-.9.7-1.1,1.3-.3.5-.4,1.1-.4,1.7v1.4c0,.8.1,1.5.4,2.1.3.6.7,1,1.2,1.3.5.3,1.1.4,1.8.4s.9,0,1.2-.2c.4-.1.7-.3,1-.6.3-.3.5-.6.6-1l2.3.4c-.2.7-.5,1.2-1,1.7-.5.5-1,.9-1.7,1.2-.7.3-1.5.4-2.4.4ZM214.3,520.3l-2.2.4c0-.3-.2-.5-.4-.8-.2-.2-.5-.5-.8-.6-.3-.2-.7-.2-1.2-.2s-1.2.2-1.7.5c-.5.3-.7.7-.7,1.2s.2.7.5,1c.3.3.8.5,1.5.6l1.9.4c1.1.3,2,.7,2.5,1.2.6.5.8,1.2.8,2.1s-.2,1.4-.6,2c-.4.6-1,1-1.8,1.3-.7.3-1.6.5-2.6.5s-2.5-.3-3.3-.9c-.9-.6-1.4-1.4-1.6-2.5l2.3-.3c.1.6.4,1.1.9,1.4.4.3,1,.5,1.7.5s1.4-.2,1.9-.5c.5-.3.7-.7.7-1.2s-.1-.7-.4-1c-.3-.3-.7-.5-1.3-.6l-2.1-.5c-1.1-.3-2-.7-2.5-1.2-.5-.6-.8-1.3-.8-2.2s.2-1.4.6-1.9c.4-.5,1-1,1.7-1.3.7-.3,1.5-.5,2.4-.5,1.3,0,2.4.3,3.1.9.8.6,1.3,1.3,1.5,2.3ZM226.3,520.3l-2.2.4c0-.3-.2-.5-.4-.8-.2-.2-.5-.5-.8-.6-.3-.2-.7-.2-1.2-.2s-1.2.2-1.7.5c-.5.3-.7.7-.7,1.2s.2.7.5,1c.3.3.8.5,1.5.6l1.9.4c1.1.3,2,.7,2.5,1.2.6.5.8,1.2.8,2.1s-.2,1.4-.6,2c-.4.6-1,1-1.8,1.3-.7.3-1.6.5-2.6.5s-2.5-.3-3.3-.9c-.9-.6-1.4-1.4-1.6-2.5l2.3-.3c.1.6.4,1.1.9,1.4.4.3,1,.5,1.7.5s1.4-.2,1.9-.5c.5-.3.7-.7.7-1.2s-.1-.7-.4-1c-.3-.3-.7-.5-1.3-.6l-2.1-.5c-1.1-.3-2-.7-2.5-1.2-.5-.6-.8-1.3-.8-2.2s.2-1.4.6-1.9c.4-.5,1-1,1.7-1.3.7-.3,1.5-.5,2.4-.5,1.3,0,2.4.3,3.1.9.8.6,1.3,1.3,1.5,2.3ZM234.5,529.8c-1.2,0-2.2-.3-3.1-.8-.9-.5-1.5-1.2-2-2.2-.5-.9-.7-2-.7-3.3s.2-2.4.7-3.3c.5-1,1.1-1.7,2-2.2.8-.5,1.8-.8,3-.8s1.4.1,2,.3c.6.2,1.2.6,1.7,1.1.5.5.9,1.1,1.2,1.9.3.8.4,1.7.4,2.8v.8h-9.7v-1.8h7.4c0-.6-.1-1.2-.4-1.7-.3-.5-.6-.9-1.1-1.2-.5-.3-1-.4-1.6-.4s-1.3.2-1.7.5c-.5.3-.9.7-1.1,1.3-.3.5-.4,1.1-.4,1.7v1.4c0,.8.1,1.5.4,2.1.3.6.7,1,1.2,1.3.5.3,1.1.4,1.8.4s.9,0,1.2-.2c.4-.1.7-.3,1-.6.3-.3.5-.6.6-1l2.3.4c-.2.7-.5,1.2-1,1.7-.5.5-1,.9-1.7,1.2-.7.3-1.5.4-2.4.4ZM246.9,529.8c-1,0-1.9-.3-2.6-.8-.8-.5-1.4-1.2-1.8-2.2-.4-.9-.7-2.1-.7-3.4s.2-2.4.7-3.4c.4-.9,1.1-1.7,1.8-2.2.8-.5,1.7-.7,2.6-.7s1.4.1,1.8.4c.5.2.8.5,1.1.9.3.3.5.6.6.9h.1v-6.1h2.4v16.3h-2.3v-1.9h-.2c-.1.3-.3.6-.6.9-.3.3-.6.6-1.1.9-.5.2-1.1.4-1.8.4ZM247.4,527.7c.7,0,1.3-.2,1.7-.5.5-.4.8-.9,1.1-1.5.2-.6.4-1.4.4-2.3s-.1-1.6-.4-2.2c-.2-.6-.6-1.1-1.1-1.5-.5-.4-1.1-.5-1.7-.5s-1.3.2-1.8.6c-.5.4-.8.9-1.1,1.5-.2.6-.4,1.4-.4,2.2s.1,1.6.4,2.2c.2.7.6,1.2,1.1,1.6.5.4,1.1.6,1.8.6ZM257.9,529.7c-.4,0-.8-.2-1.1-.5-.3-.3-.5-.7-.5-1.1s.2-.8.5-1.1c.3-.3.7-.5,1.1-.5s.8.2,1.1.5c.3.3.5.7.5,1.1s0,.6-.2.8c-.1.2-.3.4-.6.6-.2.1-.5.2-.8.2ZM257.9,520.8c-.4,0-.8-.2-1.1-.5-.3-.3-.5-.7-.5-1.1s.2-.8.5-1.1c.3-.3.7-.5,1.1-.5s.8.2,1.1.5c.3.3.5.7.5,1.1s0,.6-.2.8c-.1.2-.3.4-.6.6-.2.1-.5.2-.8.2ZM268.8,529.5v-16.3h10.1v2.1h-7.6v5h6.9v2.1h-6.9v7.1h-2.5ZM285.2,529.8c-.8,0-1.5-.1-2.1-.4-.6-.3-1.1-.7-1.5-1.3-.4-.6-.5-1.2-.5-2s.1-1.3.4-1.7c.3-.4.6-.8,1.1-1.1.5-.3,1-.5,1.5-.6s1.1-.2,1.7-.3c.7,0,1.3-.2,1.8-.2.5,0,.8-.2,1-.3.2-.1.3-.3.3-.6h0c0-.8-.2-1.3-.6-1.7-.4-.4-1-.6-1.7-.6s-1.4.2-1.9.5c-.5.4-.8.7-.9,1.2l-2.2-.5c.3-.7.7-1.3,1.2-1.8.5-.5,1.1-.8,1.8-1,.7-.2,1.4-.3,2.1-.3s1,0,1.6.2c.6.1,1.1.3,1.5.6.5.3.9.7,1.2,1.3.3.6.5,1.3.5,2.2v8.1h-2.3v-1.7h0c-.2.3-.4.6-.7.9-.3.3-.7.5-1.2.7-.5.2-1.1.3-1.7.3ZM285.8,527.9c.7,0,1.2-.1,1.7-.4.5-.3.8-.6,1.1-1,.2-.4.4-.9.4-1.4v-1.6c0,0-.2.2-.5.2-.2,0-.5.1-.8.2-.3,0-.6,0-.9.1-.3,0-.5,0-.7,0-.5,0-.9.2-1.3.3-.4.1-.7.3-.9.6-.2.3-.3.6-.3,1s.2,1,.7,1.3c.4.3,1,.4,1.7.4ZM296.8,513.2v16.3h-2.4v-16.3h2.4ZM309.2,520.3l-2.2.4c0-.3-.2-.5-.4-.8-.2-.2-.5-.5-.8-.6-.3-.2-.7-.2-1.2-.2s-1.2.2-1.7.5c-.5.3-.7.7-.7,1.2s.2.7.5,1c.3.3.8.5,1.5.6l1.9.4c1.1.3,2,.7,2.5,1.2.6.5.8,1.2.8,2.1s-.2,1.4-.6,2c-.4.6-1,1-1.8,1.3-.7.3-1.6.5-2.6.5s-2.5-.3-3.3-.9c-.9-.6-1.4-1.4-1.6-2.5l2.3-.3c.1.6.4,1.1.9,1.4.4.3,1,.5,1.7.5s1.4-.2,1.9-.5c.5-.3.7-.7.7-1.2s-.1-.7-.4-1c-.3-.3-.7-.5-1.3-.6l-2.1-.5c-1.1-.3-2-.7-2.5-1.2-.5-.6-.8-1.3-.8-2.2s.2-1.4.6-1.9c.4-.5,1-1,1.7-1.3.7-.3,1.5-.5,2.4-.5,1.3,0,2.4.3,3.1.9.8.6,1.3,1.3,1.5,2.3ZM317.3,529.8c-1.2,0-2.2-.3-3.1-.8-.9-.5-1.5-1.2-2-2.2-.5-.9-.7-2-.7-3.3s.2-2.4.7-3.3c.5-1,1.1-1.7,2-2.2.8-.5,1.8-.8,3-.8s1.4.1,2,.3c.6.2,1.2.6,1.7,1.1.5.5.9,1.1,1.2,1.9.3.8.4,1.7.4,2.8v.8h-9.7v-1.8h7.4c0-.6-.1-1.2-.4-1.7-.3-.5-.6-.9-1.1-1.2-.5-.3-1-.4-1.6-.4s-1.3.2-1.7.5c-.5.3-.9.7-1.1,1.3-.3.5-.4,1.1-.4,1.7v1.4c0,.8.1,1.5.4,2.1.3.6.7,1,1.2,1.3.5.3,1.1.4,1.8.4s.9,0,1.2-.2c.4-.1.7-.3,1-.6.3-.3.5-.6.6-1l2.3.4c-.2.7-.5,1.2-1,1.7-.5.5-1,.9-1.7,1.2-.7.3-1.5.4-2.4.4Z"/>
    <path class="st7" d="M397.1,295.3h-5.3v-16.3h5.4c1.6,0,3,.3,4.1,1,1.1.6,2,1.6,2.6,2.8.6,1.2.9,2.7.9,4.3s-.3,3.2-.9,4.4c-.6,1.2-1.5,2.2-2.7,2.8-1.2.7-2.6,1-4.2,1ZM394.3,293.2h2.7c1.2,0,2.3-.2,3.1-.7.8-.5,1.4-1.2,1.8-2,.4-.9.6-2,.6-3.3s-.2-2.4-.6-3.3c-.4-.9-1-1.6-1.8-2s-1.8-.7-3-.7h-2.8v12ZM413,295.6c-1.2,0-2.2-.3-3.1-.8-.9-.5-1.5-1.2-2-2.2-.5-.9-.7-2-.7-3.3s.2-2.4.7-3.3c.5-1,1.1-1.7,2-2.2.8-.5,1.8-.8,3-.8s1.4.1,2,.3,1.2.6,1.7,1.1c.5.5.9,1.1,1.2,1.9.3.8.4,1.7.4,2.8v.8h-9.7v-1.8h7.4c0-.6-.1-1.2-.4-1.7-.3-.5-.6-.9-1.1-1.2-.5-.3-1-.4-1.6-.4s-1.3.2-1.8.5c-.5.3-.9.7-1.1,1.3-.3.5-.4,1.1-.4,1.7v1.4c0,.8.1,1.5.4,2.1.3.6.7,1,1.2,1.3.5.3,1.1.4,1.8.4s.9,0,1.2-.2c.4-.1.7-.3,1-.6.3-.3.5-.6.6-1l2.3.4c-.2.7-.5,1.2-1,1.7-.5.5-1,.9-1.7,1.2-.7.3-1.5.4-2.4.4ZM426.7,283.1v1.9h-6.9v-1.9h6.9ZM421.7,295.3v-13.6c0-.8.2-1.4.5-1.9.3-.5.8-.9,1.3-1.1.6-.3,1.2-.4,1.8-.4s.9,0,1.2.1c.3,0,.6.1.8.2l-.6,1.9c-.1,0-.3,0-.4-.1-.2,0-.4,0-.6,0-.6,0-1,.1-1.2.4-.2.3-.4.7-.4,1.2v13.3h-2.4ZM432.4,295.6c-.8,0-1.5-.1-2.1-.4-.6-.3-1.1-.7-1.5-1.3-.4-.6-.5-1.2-.5-2s.1-1.3.4-1.7c.3-.4.6-.8,1.1-1.1.4-.3,1-.5,1.5-.6.6-.1,1.1-.2,1.7-.3.7,0,1.3-.2,1.8-.2.5,0,.8-.2,1-.3.2-.1.3-.3.3-.6h0c0-.8-.2-1.3-.6-1.7-.4-.4-1-.6-1.7-.6s-1.4.2-1.9.5c-.5.3-.8.7-.9,1.2l-2.2-.5c.3-.7.7-1.3,1.2-1.8.5-.5,1.1-.8,1.8-1,.7-.2,1.4-.3,2.1-.3s1,0,1.6.2c.6.1,1.1.3,1.5.6.5.3.9.7,1.2,1.3.3.6.5,1.3.5,2.2v8.1h-2.3v-1.7h0c-.2.3-.4.6-.7.9-.3.3-.7.5-1.2.7-.5.2-1.1.3-1.7.3ZM432.9,293.7c.7,0,1.2-.1,1.7-.4.5-.3.8-.6,1.1-1,.2-.4.4-.9.4-1.4v-1.6c0,0-.3.2-.5.2-.2,0-.5.1-.8.2-.3,0-.6,0-.9.1-.3,0-.5,0-.7,0-.5,0-.9.2-1.3.3-.4.1-.7.3-.9.6-.2.3-.3.6-.3,1s.2,1,.7,1.3c.4.3,1,.4,1.7.4ZM449.3,290.3v-7.1h2.4v12.2h-2.3v-2.1h-.1c-.3.7-.7,1.2-1.4,1.6-.6.4-1.4.6-2.3.6s-1.5-.2-2.1-.5c-.6-.3-1.1-.9-1.4-1.6-.3-.7-.5-1.5-.5-2.5v-7.8h2.4v7.5c0,.8.2,1.5.7,2,.5.5,1.1.7,1.8.7s.9-.1,1.3-.3c.4-.2.8-.6,1.1-1,.3-.5.4-1,.4-1.7ZM457.2,279.1v16.3h-2.4v-16.3h2.4ZM466.1,283.1v1.9h-6.7v-1.9h6.7ZM461.3,280.2h2.4v11.6c0,.5,0,.8.2,1,.1.2.3.4.5.5.2,0,.5.1.7.1s.4,0,.5,0c.1,0,.3,0,.3,0l.4,2c-.1,0-.3.1-.6.2-.3,0-.6,0-1,0-.6,0-1.2-.1-1.7-.3-.5-.2-1-.6-1.3-1.1s-.5-1.1-.5-1.8v-12Z"/>
    <path class="st7" d="M570,295.3v-16.3h2.5v7.1h8.1v-7.1h2.5v16.3h-2.5v-7.1h-8.1v7.1h-2.5ZM591.6,295.6c-1.1,0-2.1-.3-3-.8-.9-.5-1.5-1.3-2-2.2-.5-.9-.7-2-.7-3.3s.2-2.4.7-3.3c.5-.9,1.1-1.7,2-2.2.9-.5,1.9-.8,3-.8s2.1.3,3,.8c.9.5,1.5,1.3,2,2.2s.7,2.1.7,3.3-.2,2.4-.7,3.3c-.5.9-1.1,1.7-2,2.2-.9.5-1.9.8-3,.8ZM591.6,293.6c.7,0,1.4-.2,1.8-.6.5-.4.8-.9,1.1-1.6.2-.7.4-1.4.4-2.2s-.1-1.5-.4-2.1c-.2-.7-.6-1.2-1.1-1.6-.5-.4-1.1-.6-1.8-.6s-1.4.2-1.9.6c-.5.4-.9.9-1.1,1.6-.2.7-.3,1.4-.3,2.1s.1,1.5.3,2.2c.2.7.6,1.2,1.1,1.6.5.4,1.1.6,1.9.6ZM609.9,283.1l-4.4,12.2h-2.5l-4.4-12.2h2.6l3.1,9.4h.1l3.1-9.4h2.6ZM617,295.6c-1.2,0-2.2-.3-3.1-.8-.9-.5-1.5-1.2-2-2.2-.5-.9-.7-2-.7-3.3s.2-2.4.7-3.3c.5-1,1.1-1.7,2-2.2.8-.5,1.8-.8,3-.8s1.4.1,2,.3c.6.2,1.2.6,1.7,1.1.5.5.9,1.1,1.2,1.9.3.8.4,1.7.4,2.8v.8h-9.7v-1.8h7.4c0-.6-.1-1.2-.4-1.7-.3-.5-.6-.9-1.1-1.2-.5-.3-1-.4-1.6-.4s-1.3.2-1.8.5c-.5.3-.9.7-1.1,1.3-.3.5-.4,1.1-.4,1.7v1.4c0,.8.1,1.5.4,2.1.3.6.7,1,1.2,1.3.5.3,1.1.4,1.8.4s.9,0,1.2-.2c.4-.1.7-.3,1-.6.3-.3.5-.6.6-1l2.3.4c-.2.7-.5,1.2-1,1.7-.5.5-1,.9-1.7,1.2-.7.3-1.5.4-2.4.4ZM624.9,295.3v-12.2h2.3v1.9h.1c.2-.7.6-1.2,1.2-1.6.6-.4,1.2-.6,1.9-.6s.3,0,.5,0c.2,0,.4,0,.5,0v2.3c0,0-.3,0-.5,0-.2,0-.5,0-.7,0-.6,0-1.1.1-1.5.4-.4.2-.8.6-1,1-.3.4-.4.9-.4,1.4v7.5h-2.4Z"/>
    <path class="st7" d="M738.5,295.3h-5.3v-16.3h5.4c1.6,0,3,.3,4.1,1,1.1.6,2,1.6,2.6,2.8.6,1.2.9,2.7.9,4.3s-.3,3.2-.9,4.4c-.6,1.2-1.5,2.2-2.7,2.8-1.2.7-2.6,1-4.2,1ZM735.7,293.2h2.7c1.2,0,2.3-.2,3.1-.7.8-.5,1.4-1.2,1.8-2,.4-.9.6-2,.6-3.3s-.2-2.4-.6-3.3c-.4-.9-1-1.6-1.8-2-.8-.5-1.8-.7-3-.7h-2.8v12ZM749.2,295.3v-12.2h2.4v12.2h-2.4ZM750.4,281.2c-.4,0-.8-.1-1.1-.4-.3-.3-.4-.6-.4-1s.1-.7.4-1c.3-.3.7-.4,1.1-.4s.8.1,1.1.4c.3.3.4.6.4,1s-.1.7-.4,1c-.3.3-.6.4-1.1.4ZM764,286.1l-2.2.4c0-.3-.2-.5-.4-.8-.2-.2-.5-.5-.8-.6s-.7-.2-1.2-.2-1.2.2-1.7.5c-.4.3-.7.7-.7,1.2s.2.7.5,1c.3.2.8.5,1.5.6l1.9.4c1.1.3,2,.7,2.5,1.2.6.5.8,1.2.8,2.1s-.2,1.4-.6,2c-.4.6-1,1-1.8,1.3-.7.3-1.6.5-2.6.5s-2.5-.3-3.3-.9c-.9-.6-1.4-1.4-1.6-2.5l2.3-.3c.1.6.4,1.1.9,1.4.4.3,1,.5,1.7.5s1.4-.2,1.9-.5c.5-.3.7-.7.7-1.2s-.1-.7-.4-1c-.3-.3-.7-.5-1.3-.6l-2.1-.5c-1.1-.3-2-.7-2.5-1.2-.5-.6-.8-1.3-.8-2.2s.2-1.4.6-1.9c.4-.5,1-1,1.7-1.3.7-.3,1.5-.5,2.4-.5,1.3,0,2.4.3,3.1.9.8.6,1.3,1.3,1.5,2.3ZM770.4,295.6c-.8,0-1.5-.1-2.1-.4-.6-.3-1.1-.7-1.5-1.3-.4-.6-.5-1.2-.5-2s.1-1.3.4-1.7c.3-.4.6-.8,1.1-1.1.5-.3,1-.5,1.5-.6.6-.1,1.1-.2,1.7-.3.7,0,1.3-.2,1.8-.2.5,0,.8-.2,1-.3s.3-.3.3-.6h0c0-.8-.2-1.3-.6-1.7-.4-.4-1-.6-1.7-.6s-1.4.2-1.9.5c-.5.3-.8.7-.9,1.2l-2.2-.5c.3-.7.7-1.3,1.2-1.8.5-.5,1.1-.8,1.8-1,.7-.2,1.4-.3,2.1-.3s1,0,1.6.2c.6.1,1.1.3,1.5.6.5.3.9.7,1.2,1.3.3.6.5,1.3.5,2.2v8.1h-2.3v-1.7h0c-.2.3-.4.6-.7.9-.3.3-.7.5-1.2.7-.5.2-1.1.3-1.7.3ZM770.9,293.7c.7,0,1.2-.1,1.7-.4.5-.3.8-.6,1.1-1,.3-.4.4-.9.4-1.4v-1.6c0,0-.2.2-.5.2-.2,0-.5.1-.8.2-.3,0-.6,0-.9.1-.3,0-.5,0-.7,0-.5,0-.9.2-1.3.3-.4.1-.7.3-.9.6-.2.3-.3.6-.3,1s.2,1,.7,1.3c.4.3,1,.4,1.7.4ZM779.8,295.3v-16.3h2.4v6.1h.1c.1-.3.3-.5.6-.9.3-.3.6-.6,1.1-.9.5-.3,1.1-.4,1.8-.4s1.9.2,2.6.7c.8.5,1.4,1.2,1.8,2.2.4.9.7,2.1.7,3.4s-.2,2.5-.7,3.4c-.4.9-1,1.7-1.8,2.2-.8.5-1.6.8-2.6.8s-1.3-.1-1.8-.4c-.5-.2-.8-.5-1.1-.9s-.5-.6-.6-.9h-.2v1.9h-2.3ZM782.1,289.2c0,.9.1,1.6.4,2.3.2.6.6,1.2,1.1,1.5.5.4,1.1.5,1.7.5s1.3-.2,1.8-.6c.5-.4.8-.9,1.1-1.6.2-.7.4-1.4.4-2.2s-.1-1.5-.4-2.2c-.2-.6-.6-1.1-1.1-1.5-.5-.4-1.1-.6-1.8-.6s-1.3.2-1.7.5c-.5.4-.8.9-1.1,1.5-.2.6-.4,1.4-.4,2.2ZM796,279.1v16.3h-2.4v-16.3h2.4ZM804.4,295.6c-1.2,0-2.2-.3-3.1-.8-.9-.5-1.5-1.2-2-2.2-.5-.9-.7-2-.7-3.3s.2-2.4.7-3.3c.5-1,1.1-1.7,2-2.2.8-.5,1.8-.8,3-.8s1.4.1,2,.3c.6.2,1.2.6,1.7,1.1.5.5.9,1.1,1.2,1.9.3.8.4,1.7.4,2.8v.8h-9.7v-1.8h7.4c0-.6-.1-1.2-.4-1.7-.3-.5-.6-.9-1.1-1.2-.5-.3-1-.4-1.6-.4s-1.3.2-1.8.5c-.5.3-.9.7-1.1,1.3-.3.5-.4,1.1-.4,1.7v1.4c0,.8.1,1.5.4,2.1.3.6.7,1,1.2,1.3.5.3,1.1.4,1.8.4s.9,0,1.2-.2c.4-.1.7-.3,1-.6.3-.3.5-.6.6-1l2.3.4c-.2.7-.5,1.2-1,1.7-.5.5-1,.9-1.7,1.2-.7.3-1.5.4-2.4.4ZM816.9,295.6c-1,0-1.9-.3-2.6-.8-.8-.5-1.4-1.2-1.8-2.2-.4-.9-.7-2.1-.7-3.4s.2-2.4.7-3.4c.4-.9,1.1-1.7,1.8-2.2.8-.5,1.7-.7,2.6-.7s1.4.1,1.8.4c.5.2.8.5,1.1.9.3.3.5.6.6.9h.1v-6.1h2.4v16.3h-2.3v-1.9h-.2c-.1.3-.4.6-.6.9-.3.3-.6.6-1.1.9-.5.2-1.1.4-1.8.4ZM817.4,293.6c.7,0,1.3-.2,1.7-.5.5-.4.8-.9,1.1-1.5.2-.6.4-1.4.4-2.3s-.1-1.6-.4-2.2c-.2-.6-.6-1.1-1.1-1.5-.5-.4-1.1-.5-1.8-.5s-1.3.2-1.8.6c-.5.4-.8.9-1.1,1.5-.2.6-.4,1.4-.4,2.2s.1,1.6.4,2.2c.2.7.6,1.2,1.1,1.6.5.4,1.1.6,1.8.6Z"/>
    <g class="st17">
      <g>
        <path class="st14" d="M410.5,364.4h37.3c12.4,0,22.4,10,22.4,22.4h0c0,12.4-10,22.4-22.4,22.4h-37.3c-12.4,0-22.4-10-22.4-22.4h0c0-12.4,10-22.4,22.4-22.4Z"/>
        <circle class="st5" cx="447.9" cy="386.8" r="18.7"/>
      </g>
    </g>
    <g class="st10">
      <g>
        <path class="st4" d="M582.2,364.4h37.3c12.4,0,22.4,10,22.4,22.4h0c0,12.4-10,22.4-22.4,22.4h-37.3c-12.4,0-22.4-10-22.4-22.4h0c0-12.4,10-22.4,22.4-22.4Z"/>
        <circle class="st5" cx="619.5" cy="386.8" r="18.7"/>
      </g>
    </g>
    <g class="st15">
      <g>
        <path class="st8" d="M759.5,364.4h37.3c12.4,0,22.4,10,22.4,22.4h0c0,12.4-10,22.4-22.4,22.4h-37.3c-12.4,0-22.4-10-22.4-22.4h0c0-12.4,10-22.4,22.4-22.4Z"/>
        <circle class="st11" cx="796.8" cy="386.8" r="18.7"/>
      </g>
    </g>
    <g class="st13">
      <g>
        <path class="st8" d="M410.5,498.7h37.3c12.4,0,22.4,10,22.4,22.4h0c0,12.4-10,22.4-22.4,22.4h-37.3c-12.4,0-22.4-10-22.4-22.4h0c0-12.4,10-22.4,22.4-22.4Z"/>
        <circle class="st5" cx="410.5" cy="521.1" r="18.7"/>
      </g>
    </g>
    <g class="st2">
      <g>
        <path class="st18" d="M582.2,498.7h37.3c12.4,0,22.4,10,22.4,22.4h0c0,12.4-10,22.4-22.4,22.4h-37.3c-12.4,0-22.4-10-22.4-22.4h0c0-12.4,10-22.4,22.4-22.4Z"/>
        <circle class="st5" cx="582.2" cy="521.1" r="18.7"/>
      </g>
    </g>
    <g class="st12">
      <g>
        <path class="st8" d="M759.5,498.7h37.3c12.4,0,22.4,10,22.4,22.4h0c0,12.4-10,22.4-22.4,22.4h-37.3c-12.4,0-22.4-10-22.4-22.4h0c0-12.4,10-22.4,22.4-22.4Z"/>
        <circle class="st11" cx="759.5" cy="521.1" r="18.7"/>
      </g>
    </g>
  </g>
</svg>