<?xml version="1.0" encoding="UTF-8"?>
<svg id="Layer_1" xmlns="http://www.w3.org/2000/svg" version="1.1" viewBox="0 0 24 24">
  <!-- Generator: Adobe Illustrator 29.3.0, SVG Export Plug-In . SVG Version: 2.1.0 Build 146)  -->
  <defs>
    <style>
      .st0 {
        fill: none;
      }
    </style>
  </defs>
  <rect class="st0" width="24" height="24"/>
  <path d="M21.1,7.5h-7c-.5,0-1-.2-1.3-.6s-.5-.9-.4-1.4h0c0-.9.9-1.6,1.9-1.6h6.9c.5,0,1,.2,1.3.6s.5.9.5,1.4c0,.9-.9,1.6-1.9,1.6h0ZM21.2,13.8h-4.6c-1,0-1.8-.8-1.8-1.8s.8-1.8,1.8-1.8h4.6c1,0,1.8.8,1.8,1.8s-.8,1.8-1.8,1.8ZM22.5,17.1c.3.4.5.9.5,1.4,0,.9-.9,1.6-1.9,1.6h-2.8c-.5,0-1-.2-1.3-.6s-.5-.9-.5-1.4c0-.9.9-1.6,1.9-1.6h2.8c.5,0,1,.2,1.3.6ZM13.3,17l-3.1-10.4c-.3-1-.6-1.7-1.1-2.1-.4-.4-1-.6-1.8-.6s-1.3.2-1.8.6c-.4.4-.8,1.1-1.1,2.1l-3.1,10.4c-.2.7-.3,1.3-.3,1.6s.1.9.4,1.2c.3.3.7.4,1.1.4s.8-.1,1.1-.4c.3-.3.5-.8.7-1.5l.5-1.9h4.7l.5,1.9c.2.7.4,1.2.7,1.5.3.3.6.4,1.1.4s.9-.2,1.2-.5c.3-.3.4-.7.4-1.2s0-.9-.3-1.5ZM5.6,13.6l1.6-6.1h.2l1.6,6.1h-3.4Z"/>
</svg>