<?xml version="1.0" encoding="UTF-8"?>
<svg id="Layer_1" xmlns="http://www.w3.org/2000/svg" version="1.1" viewBox="0 0 24 24">
  <!-- Generator: Adobe Illustrator 29.3.1, SVG Export Plug-In . SVG Version: 2.1.0 Build 151)  -->
  <defs>
    <style>
      .st0 {
        fill: none;
      }
    </style>
  </defs>
  <rect class="st0" width="24" height="24"/>
  <path d="M20.7,5.5l-2.1-2.1c-1.8-1.8-4.7-1.8-6.4,0L3.3,12.1c-.9.9-1.3,2-1.3,3.2v3.7c0,1.7,1.4,3,3,3h3.7c1.2,0,2.4-.5,3.2-1.3l8.8-8.8c1.8-1.8,1.8-4.7,0-6.4ZM9.8,18.5c-.3.3-.7.4-1.1.4h-3.7v-3.7c0-.4.2-.8.4-1.1l5.5-5.5,4.3,4.3-5.5,5.5ZM18.5,9.8l-1.1,1.1-4.3-4.3,1.1-1.1c.6-.6,1.6-.6,2.1,0l2.1,2.1c.6.6.6,1.6,0,2.1Z"/>
</svg>