<?xml version="1.0" encoding="UTF-8"?>
<svg id="Layer_1" xmlns="http://www.w3.org/2000/svg" version="1.1" viewBox="0 0 24 24">
  <!-- Generator: Adobe Illustrator 29.3.0, SVG Export Plug-In . SVG Version: 2.1.0 Build 146)  -->
  <defs>
    <style>
      .st0 {
        fill: none;
      }
    </style>
  </defs>
  <path d="M13.24,6.15c0-1.17.97-2.13,2.13-2.13h5.3c1.17,0,2.13.96,2.13,2.13s-.97,2.12-2.13,2.12h-5.3c-1.17,0-2.13-.96-2.13-2.12ZM20.67,9.57h-5.3c-1.17,0-2.13.95-2.13,2.12s.97,2.13,2.13,2.13h5.3c1.17,0,2.13-.96,2.13-2.13s-.97-2.12-2.13-2.12ZM20.67,15.11h-1.62c-1.17,0-2.13.96-2.13,2.13s.97,2.13,2.13,2.13h1.62c1.17,0,2.13-.96,2.13-2.13s-.97-2.13-2.13-2.13ZM11.33,15.55h0s-3.35,3.31-3.35,3.31c-.44.46-1.04.51-1.26.51-.36,0-.78-.12-1.14-.46,0,0,0,0,0,0l-3.39-3.35h.02c-.35-.31-.52-.73-.48-1.11.04-.38.25-.71.54-.95s.68-.39,1.1-.39c.43,0,.87.19,1.2.54l.59.58V5.47c-.01-.79.71-1.44,1.58-1.45h0c.89,0,1.63.65,1.62,1.45v8.74l.6-.59c.31-.32.76-.5,1.24-.48.67.02,1.21.4,1.44.89.22.48.15,1.1-.31,1.54Z"/>
  <rect class="st0" width="24" height="24"/>
</svg>