<?xml version="1.0" encoding="UTF-8"?>
<svg id="Layer_1" xmlns="http://www.w3.org/2000/svg" version="1.1" viewBox="0 0 24 24">
  <!-- Generator: Adobe Illustrator 29.3.1, SVG Export Plug-In . SVG Version: 2.1.0 Build 151)  -->
  <defs>
    <style>
      .st0 {
        fill: #fff;
      }

      .st1 {
        fill: none;
      }
    </style>
  </defs>
  <path class="st0" d="M22.6,19.3l-3.7-3.7c.8-1.4,1.3-3.1,1.3-4.8,0-5.4-4.4-9.7-9.7-9.7S.7,5.4.7,10.7s4.4,9.7,9.7,9.7,4-.6,5.5-1.7l3.6,3.6c.8.8,2.2.8,3,0,.8-.8.8-2.2,0-3ZM10.5,17c-3.5,0-6.3-2.8-6.3-6.3s2.8-6.3,6.3-6.3,6.3,2.8,6.3,6.3-2.8,6.3-6.3,6.3Z"/>
  <rect class="st1" width="24" height="24"/>
</svg>